<svg width="521" height="445" viewBox="0 0 521 445" fill="none" xmlns="http://www.w3.org/2000/svg">
<rect width="521" height="445" fill="#EEEEEE"/>
<path d="M444.591 49.6651L399.828 60.1443L380.915 23.6542L419.191 8.36755L444.591 49.6651Z" fill="#2F2E41"/>
<path d="M489.795 301.863C489.795 301.863 492.18 294.573 495.918 296.251C499.656 297.929 510.125 306.429 510.125 306.429C510.125 306.429 527.614 308.96 516.66 315.443C505.706 321.927 501.422 321.523 501.072 320.606C500.722 319.689 497.881 317.653 497.881 317.653L493.749 320.359L486.775 321.028C486.775 321.028 477.644 305.205 480.583 304.786C483.521 304.366 489.948 304.972 489.795 301.863Z" fill="#2F2E41"/>
<path d="M503.348 255.521C503.348 255.521 510.621 253.587 511.286 257.708C511.951 261.828 510.701 275.442 510.701 275.442C510.701 275.442 518.17 291.815 506.882 285.962C495.594 280.11 493.587 276.216 494.147 275.416C494.708 274.616 494.825 271.069 494.825 271.069L490.354 269.003L486 263.39C486 263.39 493.979 246.929 495.926 249.219C497.873 251.509 500.884 257.348 503.348 255.521Z" fill="#2F2E41"/>
<path d="M406.78 46.2561C415.735 46.2561 422.994 38.83 422.994 29.6694C422.994 20.5088 415.735 13.0827 406.78 13.0827C397.826 13.0827 390.566 20.5088 390.566 29.6694C390.566 38.83 397.826 46.2561 406.78 46.2561Z" fill="#FFB9B9"/>
<path d="M404.897 84.326L444.256 78.5135C438.38 67.6346 432.323 57.7197 424.182 58.8282C416.939 53.6426 416.521 45.3065 418.353 35.932L398.653 41.3194C400.386 47.0981 399.716 52.1722 395.099 56.0899C401.55 65.3797 405.724 74.7568 404.897 84.326Z" fill="#FFB9B9"/>
<path d="M401.922 119.636C415.908 138.264 430.25 145.624 445.67 118.996L446.941 107.115C456.836 94.3486 453.939 83.3176 441.872 73.5299L436.052 59.5321L427.282 58.0857C428.437 59.4506 429.171 61.135 429.391 62.9262C429.61 64.7174 429.306 66.535 428.516 68.1494C427.727 69.7638 426.487 71.1026 424.954 71.9968C423.421 72.8909 421.664 73.3002 419.903 73.1731L416.733 72.944C415.558 72.8591 414.411 72.5371 413.358 71.9967C412.305 71.4562 411.367 70.7079 410.598 69.795L397.126 53.7977L391.449 55.35C390.806 55.5259 390.232 55.9028 389.808 56.4282C389.385 56.9535 389.132 57.6011 389.085 58.2806L387.244 84.94C395.346 94.1222 400.008 105.86 401.922 119.636Z" fill="#E6E6E6"/>
<path d="M395.662 108.287L364.687 101.853L385.259 82.2701L377.429 67.7844L344.177 103.966C343.606 104.63 343.224 105.443 343.073 106.314C342.922 107.185 343.007 108.082 343.32 108.907C343.632 109.733 344.16 110.454 344.846 110.994C345.531 111.533 346.348 111.87 347.208 111.967L392.242 117.07L394.09 125.407C394.336 126.516 394.839 127.548 395.557 128.416C396.275 129.284 397.187 129.963 398.215 130.394C399.244 130.826 400.358 130.998 401.466 130.895C402.573 130.793 403.639 130.42 404.576 129.807C405.442 129.24 406.174 128.482 406.719 127.589C407.263 126.696 407.606 125.69 407.723 124.644C407.84 123.598 407.727 122.539 407.394 121.543C407.06 120.547 406.514 119.64 405.794 118.888L395.662 108.287Z" fill="#FFB9B9"/>
<path d="M443.82 159.792L439.709 170.744C439.307 171.813 439.132 172.958 439.195 174.103C439.258 175.247 439.557 176.364 440.074 177.381C440.59 178.398 441.312 179.292 442.191 180.002C443.07 180.713 444.086 181.225 445.173 181.504C446.446 181.831 447.779 181.828 449.051 181.498C450.324 181.167 451.496 180.517 452.462 179.608C453.428 178.698 454.157 177.557 454.585 176.288C455.013 175.018 455.126 173.66 454.913 172.334L453.173 161.501L458.892 118.172L453.781 89.5494L442.124 93.2111L445.997 119.855L443.82 159.792Z" fill="#FFB9B9"/>
<path d="M439.422 96.2674L457.045 89.2361L447.223 67.2183C446.173 64.8659 444.518 62.85 442.434 61.3866C440.35 59.9232 437.916 59.0674 435.393 58.911L430.874 58.6307L439.422 96.2674Z" fill="#E6E6E6"/>
<path d="M381.37 87.2839L400.16 80.7762L393.535 57.7188C393.32 56.9723 392.853 56.3284 392.216 55.9027C391.58 55.4769 390.816 55.2972 390.061 55.3956C389.423 55.4789 388.824 55.7571 388.343 56.1938L369.149 73.6145C372.821 79.7986 376.73 79.9538 381.37 87.2839Z" fill="#E6E6E6"/>
<path d="M417.552 2.74076C417.552 2.74076 427.468 4.64884 429.761 17.3003C430.12 19.4338 430.185 21.6082 429.955 23.7602C429.726 26.1955 430.058 31.339 435.227 37.3955C438.6 41.3237 441.743 45.4525 444.639 49.7604L434.277 52.5821L429.648 35.0206C427.404 26.5063 423.946 18.3765 419.386 10.8927L419.291 10.7365C419.291 10.7365 415.85 20.1431 406.626 21.4326L409.47 17.6022C409.47 17.6022 398.688 23.9786 392.579 25.9265C391.881 26.149 391.257 26.5618 390.772 27.1205C390.287 27.6792 389.961 28.3626 389.827 29.0972C389.694 29.8317 389.759 30.5895 390.016 31.289C390.272 31.9885 390.711 32.603 391.283 33.0666C391.327 33.1014 391.371 33.1363 391.416 33.1712C395.909 36.6625 405.076 44.993 401.454 53.0516C397.833 61.1102 402.056 62.5795 402.056 62.5795L394.268 59.5488L390.704 57.9874L391.064 60.6833L373.664 61.0562C373.664 61.0562 368.963 61.027 377.314 48.1876C377.314 48.1876 379.33 43.3733 377.675 39.6953C376.347 36.91 375.686 33.8415 375.747 30.7433C376.273 17.7987 381.603 -8.53577 417.552 2.74076Z" fill="#2F2E41"/>
<path d="M372.575 444.105L7.40229 442.191C5.60944 442.179 3.89444 441.441 2.63349 440.137C1.37254 438.834 0.668604 437.072 0.676112 435.238L2.35061 115.786C2.36233 113.952 3.0847 112.197 4.35924 110.907C5.63379 109.617 7.35644 108.896 9.14931 108.904L374.322 110.818C376.115 110.829 377.83 111.568 379.091 112.871C380.352 114.175 381.056 115.937 381.048 117.771L379.374 437.223C379.362 439.057 378.64 440.811 377.365 442.102C376.091 443.392 374.368 444.112 372.575 444.105ZM9.13481 111.671C8.05906 111.666 7.02542 112.099 6.26068 112.873C5.49593 113.647 5.06254 114.7 5.0556 115.8L3.3811 435.252C3.37651 436.352 3.79884 437.41 4.55542 438.192C5.31201 438.974 6.34106 439.417 7.4168 439.424L372.59 441.338C373.665 441.342 374.699 440.91 375.464 440.136C376.228 439.362 376.662 438.309 376.669 437.209L378.343 117.757C378.348 116.657 377.926 115.599 377.169 114.817C376.412 114.035 375.383 113.592 374.308 113.585L9.13481 111.671Z" fill="#3F3D56" fill-opacity="0.44"/>
<g filter="url(#filter0_bd)">
<path d="M79.8281 158.258H74.5898V173H71.7891V158.258H66.5859V155.938H79.8281V158.258ZM85.0312 162.078C85.4688 161.453 86 160.965 86.625 160.613C87.2578 160.262 87.9609 160.086 88.7344 160.086C89.3906 160.086 89.9922 160.184 90.5391 160.379C91.0938 160.574 91.5664 160.879 91.957 161.293C92.3477 161.699 92.6523 162.227 92.8711 162.875C93.0898 163.516 93.1992 164.285 93.1992 165.184V173H90.3984V165.16C90.3984 164.676 90.3359 164.262 90.2109 163.918C90.0938 163.566 89.9219 163.277 89.6953 163.051C89.4766 162.824 89.207 162.656 88.8867 162.547C88.5664 162.438 88.2031 162.383 87.7969 162.383C87.1875 162.383 86.6484 162.512 86.1797 162.77C85.7109 163.02 85.3281 163.359 85.0312 163.789V173H82.2305V155H85.0312V162.078ZM102.551 173.234C101.613 173.234 100.758 173.078 99.9844 172.766C99.2109 172.453 98.5469 172.023 97.9922 171.477C97.4453 170.93 97.0195 170.285 96.7148 169.543C96.4102 168.793 96.2578 167.984 96.2578 167.117V166.637C96.2578 165.629 96.418 164.723 96.7383 163.918C97.0664 163.113 97.5 162.426 98.0391 161.855C98.5859 161.285 99.2188 160.848 99.9375 160.543C100.664 160.238 101.426 160.086 102.223 160.086C103.145 160.086 103.957 160.242 104.66 160.555C105.363 160.859 105.949 161.293 106.418 161.855C106.895 162.41 107.254 163.07 107.496 163.836C107.738 164.602 107.859 165.441 107.859 166.355V167.539H99.0703C99.1172 168.031 99.2383 168.488 99.4336 168.91C99.6289 169.332 99.8828 169.699 100.195 170.012C100.516 170.316 100.887 170.559 101.309 170.738C101.738 170.91 102.207 170.996 102.715 170.996C103.426 170.996 104.078 170.855 104.672 170.574C105.273 170.293 105.762 169.906 106.137 169.414L107.66 170.844C107.457 171.148 107.195 171.445 106.875 171.734C106.555 172.016 106.18 172.27 105.75 172.496C105.32 172.715 104.836 172.891 104.297 173.023C103.766 173.164 103.184 173.234 102.551 173.234ZM102.211 162.348C101.82 162.348 101.457 162.418 101.121 162.559C100.785 162.699 100.484 162.906 100.219 163.18C99.9531 163.445 99.7266 163.773 99.5391 164.164C99.3594 164.547 99.2305 164.984 99.1523 165.477H105.094V165.266C105.07 164.891 104.996 164.531 104.871 164.188C104.754 163.836 104.578 163.523 104.344 163.25C104.109 162.977 103.812 162.758 103.453 162.594C103.102 162.43 102.688 162.348 102.211 162.348ZM125.262 173V155.938H129.434C130.605 155.945 131.656 156.141 132.586 156.523C133.523 156.906 134.316 157.445 134.965 158.141C135.621 158.836 136.125 159.668 136.477 160.637C136.828 161.598 137.008 162.664 137.016 163.836V165.125C137.008 166.297 136.828 167.367 136.477 168.336C136.125 169.297 135.625 170.125 134.977 170.82C134.328 171.508 133.543 172.043 132.621 172.426C131.699 172.809 130.664 173 129.516 173H125.262ZM128.121 158.211V170.738H129.516C130.289 170.73 130.965 170.594 131.543 170.328C132.121 170.055 132.602 169.676 132.984 169.191C133.375 168.699 133.664 168.109 133.852 167.422C134.047 166.734 134.148 165.969 134.156 165.125V163.812C134.148 162.992 134.047 162.242 133.852 161.562C133.664 160.883 133.375 160.297 132.984 159.805C132.594 159.305 132.102 158.918 131.508 158.645C130.922 158.363 130.23 158.219 129.434 158.211H128.121ZM147.973 173C147.895 172.844 147.828 172.66 147.773 172.449C147.727 172.238 147.684 172.012 147.645 171.77C147.449 171.973 147.227 172.164 146.977 172.344C146.734 172.516 146.461 172.668 146.156 172.801C145.859 172.934 145.535 173.039 145.184 173.117C144.84 173.195 144.469 173.234 144.07 173.234C143.398 173.234 142.789 173.141 142.242 172.953C141.703 172.758 141.238 172.492 140.848 172.156C140.465 171.812 140.168 171.41 139.957 170.949C139.746 170.488 139.641 169.988 139.641 169.449C139.641 168.09 140.145 167.051 141.152 166.332C142.168 165.613 143.621 165.254 145.512 165.254H147.562V164.422C147.562 163.75 147.336 163.219 146.883 162.828C146.43 162.43 145.789 162.23 144.961 162.23C144.586 162.23 144.258 162.277 143.977 162.371C143.695 162.457 143.461 162.578 143.273 162.734C143.086 162.891 142.945 163.074 142.852 163.285C142.758 163.496 142.711 163.723 142.711 163.965H139.91C139.91 163.473 140.023 162.996 140.25 162.535C140.484 162.066 140.824 161.652 141.27 161.293C141.715 160.926 142.258 160.633 142.898 160.414C143.547 160.195 144.285 160.086 145.113 160.086C145.863 160.086 146.559 160.18 147.199 160.367C147.84 160.547 148.395 160.82 148.863 161.188C149.332 161.547 149.699 162 149.965 162.547C150.23 163.086 150.363 163.719 150.363 164.445V170.094C150.363 170.648 150.402 171.156 150.48 171.617C150.566 172.07 150.688 172.465 150.844 172.801V173H147.973ZM144.598 170.973C144.957 170.973 145.293 170.93 145.605 170.844C145.926 170.75 146.211 170.633 146.461 170.492C146.719 170.344 146.938 170.176 147.117 169.988C147.305 169.801 147.453 169.609 147.562 169.414V167.035H145.781C144.641 167.035 143.797 167.219 143.25 167.586C142.711 167.953 142.441 168.477 142.441 169.156C142.441 169.414 142.484 169.656 142.57 169.883C142.656 170.102 142.785 170.293 142.957 170.457C143.137 170.613 143.359 170.738 143.625 170.832C143.898 170.926 144.223 170.973 144.598 170.973ZM154.91 160.32H161.672V170.68H165.434V173H154.91V170.68H158.848V162.652H154.91V160.32ZM158.613 157.039C158.613 156.602 158.754 156.242 159.035 155.961C159.316 155.672 159.711 155.527 160.219 155.527C160.734 155.527 161.133 155.672 161.414 155.961C161.703 156.242 161.848 156.602 161.848 157.039C161.848 157.477 161.703 157.84 161.414 158.129C161.133 158.41 160.734 158.551 160.219 158.551C159.711 158.551 159.316 158.41 159.035 158.129C158.754 157.84 158.613 157.477 158.613 157.039ZM169.23 155H176.086V170.68H179.953V173H169.23V170.68H173.262V157.332H169.23V155ZM188.156 167.926L188.637 169.449L192.199 160.32H195.305L188.883 174.922C188.742 175.242 188.559 175.586 188.332 175.953C188.105 176.328 187.824 176.676 187.488 176.996C187.16 177.316 186.766 177.582 186.305 177.793C185.844 178.012 185.305 178.121 184.688 178.121C184.43 178.121 184.168 178.098 183.902 178.051C183.645 178.012 183.414 177.965 183.211 177.91L183.609 175.73C183.664 175.73 183.738 175.73 183.832 175.73C183.926 175.738 184.023 175.746 184.125 175.754C184.227 175.762 184.32 175.766 184.406 175.766C184.5 175.773 184.574 175.777 184.629 175.777C184.902 175.777 185.145 175.695 185.355 175.531C185.574 175.375 185.766 175.191 185.93 174.98C186.094 174.777 186.227 174.574 186.328 174.371C186.438 174.176 186.516 174.043 186.562 173.973L187.395 172.402L182.004 160.32H185.098L188.156 167.926ZM219.891 155.938H222.738L222.75 167.785C222.734 168.582 222.578 169.316 222.281 169.988C221.992 170.652 221.59 171.227 221.074 171.711C220.566 172.188 219.969 172.562 219.281 172.836C218.594 173.102 217.848 173.234 217.043 173.234C216.207 173.234 215.449 173.121 214.77 172.895C214.09 172.66 213.504 172.324 213.012 171.887C212.52 171.441 212.129 170.895 211.84 170.246C211.551 169.598 211.387 168.855 211.348 168.02H214.184C214.223 168.941 214.48 169.66 214.957 170.176C215.441 170.684 216.137 170.938 217.043 170.938C217.473 170.938 217.863 170.855 218.215 170.691C218.566 170.527 218.863 170.301 219.105 170.012C219.355 169.723 219.547 169.391 219.68 169.016C219.812 168.633 219.883 168.223 219.891 167.785V155.938ZM225.855 166.543C225.855 165.629 225.988 164.777 226.254 163.988C226.527 163.199 226.914 162.516 227.414 161.938C227.922 161.359 228.539 160.906 229.266 160.578C229.992 160.25 230.816 160.086 231.738 160.086C232.668 160.086 233.496 160.25 234.223 160.578C234.957 160.906 235.574 161.359 236.074 161.938C236.582 162.516 236.969 163.199 237.234 163.988C237.5 164.777 237.633 165.629 237.633 166.543V166.789C237.633 167.711 237.5 168.566 237.234 169.355C236.969 170.145 236.582 170.828 236.074 171.406C235.574 171.977 234.961 172.426 234.234 172.754C233.508 173.082 232.684 173.246 231.762 173.246C230.832 173.246 230 173.082 229.266 172.754C228.539 172.426 227.922 171.977 227.414 171.406C226.914 170.828 226.527 170.145 226.254 169.355C225.988 168.566 225.855 167.711 225.855 166.789V166.543ZM228.656 166.789C228.656 167.367 228.715 167.91 228.832 168.418C228.957 168.926 229.145 169.375 229.395 169.766C229.652 170.148 229.977 170.453 230.367 170.68C230.758 170.898 231.223 171.008 231.762 171.008C232.285 171.008 232.738 170.898 233.121 170.68C233.512 170.453 233.832 170.148 234.082 169.766C234.34 169.375 234.527 168.926 234.645 168.418C234.77 167.91 234.832 167.367 234.832 166.789V166.543C234.832 165.98 234.77 165.445 234.645 164.938C234.527 164.43 234.34 163.984 234.082 163.602C233.832 163.219 233.512 162.914 233.121 162.688C232.738 162.461 232.277 162.348 231.738 162.348C231.207 162.348 230.746 162.461 230.355 162.688C229.965 162.914 229.645 163.219 229.395 163.602C229.145 163.984 228.957 164.43 228.832 164.938C228.715 165.445 228.656 165.98 228.656 166.543V166.789ZM248.918 171.266C248.488 171.891 247.965 172.379 247.348 172.73C246.738 173.074 246.055 173.246 245.297 173.246C244.641 173.246 244.039 173.145 243.492 172.941C242.953 172.738 242.488 172.418 242.098 171.98C241.715 171.535 241.414 170.973 241.195 170.293C240.984 169.605 240.879 168.781 240.879 167.82V160.32H243.68V167.844C243.68 168.453 243.723 168.957 243.809 169.355C243.902 169.754 244.043 170.07 244.23 170.305C244.418 170.539 244.652 170.707 244.934 170.809C245.215 170.902 245.551 170.949 245.941 170.949C246.691 170.949 247.297 170.805 247.758 170.516C248.219 170.219 248.566 169.82 248.801 169.32V160.32H251.613V173H249.082L248.918 171.266ZM263.906 160.086C264.133 160.086 264.359 160.094 264.586 160.109C264.812 160.125 265.027 160.148 265.23 160.18C265.441 160.211 265.633 160.246 265.805 160.285C265.977 160.316 266.121 160.355 266.238 160.402L265.84 163.156C264.98 162.961 264.133 162.863 263.297 162.863C262.359 162.863 261.602 163.059 261.023 163.449C260.453 163.84 260.031 164.383 259.758 165.078V173H256.957V160.32H259.582L259.711 162.301C260.227 161.613 260.836 161.074 261.539 160.684C262.25 160.285 263.039 160.086 263.906 160.086ZM272.145 160.32L272.32 162.078C272.781 161.445 273.336 160.957 273.984 160.613C274.641 160.262 275.367 160.086 276.164 160.086C276.812 160.086 277.402 160.18 277.934 160.367C278.473 160.555 278.934 160.848 279.316 161.246C279.707 161.645 280.008 162.16 280.219 162.793C280.438 163.426 280.547 164.188 280.547 165.078V173H277.746V165.125C277.746 164.602 277.684 164.164 277.559 163.812C277.441 163.461 277.27 163.18 277.043 162.969C276.824 162.758 276.555 162.609 276.234 162.523C275.914 162.43 275.551 162.383 275.145 162.383C274.527 162.383 273.988 162.52 273.527 162.793C273.074 163.066 272.707 163.438 272.426 163.906V173H269.613V160.32H272.145ZM292.113 173C292.035 172.844 291.969 172.66 291.914 172.449C291.867 172.238 291.824 172.012 291.785 171.77C291.59 171.973 291.367 172.164 291.117 172.344C290.875 172.516 290.602 172.668 290.297 172.801C290 172.934 289.676 173.039 289.324 173.117C288.98 173.195 288.609 173.234 288.211 173.234C287.539 173.234 286.93 173.141 286.383 172.953C285.844 172.758 285.379 172.492 284.988 172.156C284.605 171.812 284.309 171.41 284.098 170.949C283.887 170.488 283.781 169.988 283.781 169.449C283.781 168.09 284.285 167.051 285.293 166.332C286.309 165.613 287.762 165.254 289.652 165.254H291.703V164.422C291.703 163.75 291.477 163.219 291.023 162.828C290.57 162.43 289.93 162.23 289.102 162.23C288.727 162.23 288.398 162.277 288.117 162.371C287.836 162.457 287.602 162.578 287.414 162.734C287.227 162.891 287.086 163.074 286.992 163.285C286.898 163.496 286.852 163.723 286.852 163.965H284.051C284.051 163.473 284.164 162.996 284.391 162.535C284.625 162.066 284.965 161.652 285.41 161.293C285.855 160.926 286.398 160.633 287.039 160.414C287.688 160.195 288.426 160.086 289.254 160.086C290.004 160.086 290.699 160.18 291.34 160.367C291.98 160.547 292.535 160.82 293.004 161.188C293.473 161.547 293.84 162 294.105 162.547C294.371 163.086 294.504 163.719 294.504 164.445V170.094C294.504 170.648 294.543 171.156 294.621 171.617C294.707 172.07 294.828 172.465 294.984 172.801V173H292.113ZM288.738 170.973C289.098 170.973 289.434 170.93 289.746 170.844C290.066 170.75 290.352 170.633 290.602 170.492C290.859 170.344 291.078 170.176 291.258 169.988C291.445 169.801 291.594 169.609 291.703 169.414V167.035H289.922C288.781 167.035 287.938 167.219 287.391 167.586C286.852 167.953 286.582 168.477 286.582 169.156C286.582 169.414 286.625 169.656 286.711 169.883C286.797 170.102 286.926 170.293 287.098 170.457C287.277 170.613 287.5 170.738 287.766 170.832C288.039 170.926 288.363 170.973 288.738 170.973ZM298.957 155H305.812V170.68H309.68V173H298.957V170.68H302.988V157.332H298.957V155Z" fill="black" fill-opacity="0.65"/>
</g>
<path d="M431.94 359.78H66.7625C64.9696 359.778 63.2508 359.049 61.983 357.752C60.7152 356.455 60.0021 354.696 60 352.862V188.918C60.0021 187.084 60.7153 185.326 61.983 184.029C63.2508 182.732 64.9696 182.002 66.7625 182H431.94C433.733 182.002 435.452 182.732 436.72 184.029C437.988 185.326 438.701 187.084 438.703 188.918V352.862C438.701 354.696 437.988 356.455 436.72 357.752C435.452 359.049 433.733 359.778 431.94 359.78Z" fill="url(#paint0_linear)"/>
<path d="M481.787 308.832L498.563 293.237L462.384 209.753L430.771 169.944L482.421 192.814L487.795 251.046L513.479 260.086L510.15 187.379C509.943 182.844 508.466 178.467 505.896 174.767C503.326 171.067 499.77 168.2 495.653 166.508L453.278 149.095L445.691 116.515L401.452 115.867C387.705 140.337 381.563 161.873 391.483 177.212L437.514 223.137L481.787 308.832Z" fill="#2F2E41"/>
<path d="M93.5845 268C92.368 268.002 91.2019 268.497 90.3424 269.378C89.4828 270.259 89 271.452 89 272.697C89 273.941 89.4828 275.135 90.3424 276.015C91.2019 276.896 92.368 277.392 93.5845 277.393H310.025C311.242 277.392 312.408 276.896 313.267 276.015C314.127 275.135 314.61 273.941 314.61 272.697C314.61 271.452 314.127 270.259 313.267 269.378C312.408 268.497 311.242 268.002 310.025 268H93.5845Z" fill="white"/>
<path d="M93.5845 304C92.368 304.002 91.2019 304.497 90.3424 305.378C89.4828 306.259 89 307.452 89 308.697C89 309.941 89.4828 311.135 90.3424 312.015C91.2019 312.896 92.368 313.392 93.5845 313.393H186.72C187.323 313.394 187.921 313.274 188.479 313.038C189.036 312.802 189.543 312.456 189.97 312.02C190.397 311.584 190.736 311.066 190.967 310.496C191.199 309.925 191.317 309.314 191.317 308.697C191.317 308.079 191.199 307.468 190.967 306.898C190.736 306.328 190.397 305.809 189.97 305.373C189.543 304.937 189.036 304.591 188.479 304.356C187.921 304.12 187.323 303.999 186.72 304H93.5845Z" fill="white"/>
<path d="M93.5845 232C92.368 232.002 91.2019 232.497 90.3424 233.378C89.4828 234.259 89 235.452 89 236.697C89 237.941 89.4828 239.135 90.3424 240.015C91.2019 240.896 92.368 241.392 93.5845 241.393H310.025C311.242 241.392 312.408 240.896 313.267 240.015C314.127 239.135 314.61 237.941 314.61 236.697C314.61 235.452 314.127 234.259 313.267 233.378C312.408 232.497 311.242 232.002 310.025 232H93.5845Z" fill="white"/>
<defs>
<filter id="filter0_bd" x="62.5859" y="151" width="251.094" height="35.1211" filterUnits="userSpaceOnUse" color-interpolation-filters="sRGB">
<feFlood flood-opacity="0" result="BackgroundImageFix"/>
<feGaussianBlur in="BackgroundImage" stdDeviation="2"/>
<feComposite in2="SourceAlpha" operator="in" result="effect1_backgroundBlur"/>
<feColorMatrix in="SourceAlpha" type="matrix" values="0 0 0 0 0 0 0 0 0 0 0 0 0 0 0 0 0 0 127 0"/>
<feOffset dy="4"/>
<feGaussianBlur stdDeviation="2"/>
<feColorMatrix type="matrix" values="0 0 0 0 0 0 0 0 0 0 0 0 0 0 0 0 0 0 0.25 0"/>
<feBlend mode="normal" in2="effect1_backgroundBlur" result="effect2_dropShadow"/>
<feBlend mode="normal" in="SourceGraphic" in2="effect2_dropShadow" result="shape"/>
</filter>
<linearGradient id="paint0_linear" x1="249.351" y1="182" x2="249.351" y2="359.78" gradientUnits="userSpaceOnUse">
<stop stop-color="#63FFDA"/>
<stop offset="0.635417" stop-color="#66C3E8" stop-opacity="0.614583"/>
<stop offset="1" stop-color="#6C63FF" stop-opacity="0"/>
</linearGradient>
</defs>
</svg>
