<svg width="252" height="32" viewBox="0 0 252 32" fill="none" xmlns="http://www.w3.org/2000/svg">
<g filter="url(#filter0_bd)">
<path d="M17.8281 3.25781H12.5898V18H9.78906V3.25781H4.58594V0.9375H17.8281V3.25781ZM23.0312 7.07812C23.4688 6.45312 24 5.96484 24.625 5.61328C25.2578 5.26172 25.9609 5.08594 26.7344 5.08594C27.3906 5.08594 27.9922 5.18359 28.5391 5.37891C29.0938 5.57422 29.5664 5.87891 29.957 6.29297C30.3477 6.69922 30.6523 7.22656 30.8711 7.875C31.0898 8.51562 31.1992 9.28516 31.1992 10.1836V18H28.3984V10.1602C28.3984 9.67578 28.3359 9.26172 28.2109 8.91797C28.0938 8.56641 27.9219 8.27734 27.6953 8.05078C27.4766 7.82422 27.207 7.65625 26.8867 7.54688C26.5664 7.4375 26.2031 7.38281 25.7969 7.38281C25.1875 7.38281 24.6484 7.51172 24.1797 7.76953C23.7109 8.01953 23.3281 8.35938 23.0312 8.78906V18H20.2305V0H23.0312V7.07812ZM40.5508 18.2344C39.6133 18.2344 38.7578 18.0781 37.9844 17.7656C37.2109 17.4531 36.5469 17.0234 35.9922 16.4766C35.4453 15.9297 35.0195 15.2852 34.7148 14.543C34.4102 13.793 34.2578 12.9844 34.2578 12.1172V11.6367C34.2578 10.6289 34.418 9.72266 34.7383 8.91797C35.0664 8.11328 35.5 7.42578 36.0391 6.85547C36.5859 6.28516 37.2188 5.84766 37.9375 5.54297C38.6641 5.23828 39.4258 5.08594 40.2227 5.08594C41.1445 5.08594 41.957 5.24219 42.6602 5.55469C43.3633 5.85938 43.9492 6.29297 44.418 6.85547C44.8945 7.41016 45.2539 8.07031 45.4961 8.83594C45.7383 9.60156 45.8594 10.4414 45.8594 11.3555V12.5391H37.0703C37.1172 13.0312 37.2383 13.4883 37.4336 13.9102C37.6289 14.332 37.8828 14.6992 38.1953 15.0117C38.5156 15.3164 38.8867 15.5586 39.3086 15.7383C39.7383 15.9102 40.207 15.9961 40.7148 15.9961C41.4258 15.9961 42.0781 15.8555 42.6719 15.5742C43.2734 15.293 43.7617 14.9062 44.1367 14.4141L45.6602 15.8438C45.457 16.1484 45.1953 16.4453 44.875 16.7344C44.5547 17.0156 44.1797 17.2695 43.75 17.4961C43.3203 17.7148 42.8359 17.8906 42.2969 18.0234C41.7656 18.1641 41.1836 18.2344 40.5508 18.2344ZM40.2109 7.34766C39.8203 7.34766 39.457 7.41797 39.1211 7.55859C38.7852 7.69922 38.4844 7.90625 38.2188 8.17969C37.9531 8.44531 37.7266 8.77344 37.5391 9.16406C37.3594 9.54688 37.2305 9.98438 37.1523 10.4766H43.0938V10.2656C43.0703 9.89062 42.9961 9.53125 42.8711 9.1875C42.7539 8.83594 42.5781 8.52344 42.3438 8.25C42.1094 7.97656 41.8125 7.75781 41.4531 7.59375C41.1016 7.42969 40.6875 7.34766 40.2109 7.34766ZM63.2617 18V0.9375H67.4336C68.6055 0.945313 69.6562 1.14062 70.5859 1.52344C71.5234 1.90625 72.3164 2.44531 72.9648 3.14062C73.6211 3.83594 74.125 4.66797 74.4766 5.63672C74.8281 6.59766 75.0078 7.66406 75.0156 8.83594V10.125C75.0078 11.2969 74.8281 12.3672 74.4766 13.3359C74.125 14.2969 73.625 15.125 72.9766 15.8203C72.3281 16.5078 71.543 17.043 70.6211 17.4258C69.6992 17.8086 68.6641 18 67.5156 18H63.2617ZM66.1211 3.21094V15.7383H67.5156C68.2891 15.7305 68.9648 15.5938 69.543 15.3281C70.1211 15.0547 70.6016 14.6758 70.9844 14.1914C71.375 13.6992 71.6641 13.1094 71.8516 12.4219C72.0469 11.7344 72.1484 10.9688 72.1562 10.125V8.8125C72.1484 7.99219 72.0469 7.24219 71.8516 6.5625C71.6641 5.88281 71.375 5.29688 70.9844 4.80469C70.5938 4.30469 70.1016 3.91797 69.5078 3.64453C68.9219 3.36328 68.2305 3.21875 67.4336 3.21094H66.1211ZM85.9727 18C85.8945 17.8438 85.8281 17.6602 85.7734 17.4492C85.7266 17.2383 85.6836 17.0117 85.6445 16.7695C85.4492 16.9727 85.2266 17.1641 84.9766 17.3438C84.7344 17.5156 84.4609 17.668 84.1562 17.8008C83.8594 17.9336 83.5352 18.0391 83.1836 18.1172C82.8398 18.1953 82.4688 18.2344 82.0703 18.2344C81.3984 18.2344 80.7891 18.1406 80.2422 17.9531C79.7031 17.7578 79.2383 17.4922 78.8477 17.1562C78.4648 16.8125 78.168 16.4102 77.957 15.9492C77.7461 15.4883 77.6406 14.9883 77.6406 14.4492C77.6406 13.0898 78.1445 12.0508 79.1523 11.332C80.168 10.6133 81.6211 10.2539 83.5117 10.2539H85.5625V9.42188C85.5625 8.75 85.3359 8.21875 84.8828 7.82812C84.4297 7.42969 83.7891 7.23047 82.9609 7.23047C82.5859 7.23047 82.2578 7.27734 81.9766 7.37109C81.6953 7.45703 81.4609 7.57812 81.2734 7.73438C81.0859 7.89062 80.9453 8.07422 80.8516 8.28516C80.7578 8.49609 80.7109 8.72266 80.7109 8.96484H77.9102C77.9102 8.47266 78.0234 7.99609 78.25 7.53516C78.4844 7.06641 78.8242 6.65234 79.2695 6.29297C79.7148 5.92578 80.2578 5.63281 80.8984 5.41406C81.5469 5.19531 82.2852 5.08594 83.1133 5.08594C83.8633 5.08594 84.5586 5.17969 85.1992 5.36719C85.8398 5.54688 86.3945 5.82031 86.8633 6.1875C87.332 6.54688 87.6992 7 87.9648 7.54688C88.2305 8.08594 88.3633 8.71875 88.3633 9.44531V15.0938C88.3633 15.6484 88.4023 16.1562 88.4805 16.6172C88.5664 17.0703 88.6875 17.4648 88.8438 17.8008V18H85.9727ZM82.5977 15.9727C82.957 15.9727 83.293 15.9297 83.6055 15.8438C83.9258 15.75 84.2109 15.6328 84.4609 15.4922C84.7188 15.3438 84.9375 15.1758 85.1172 14.9883C85.3047 14.8008 85.4531 14.6094 85.5625 14.4141V12.0352H83.7812C82.6406 12.0352 81.7969 12.2188 81.25 12.5859C80.7109 12.9531 80.4414 13.4766 80.4414 14.1562C80.4414 14.4141 80.4844 14.6562 80.5703 14.8828C80.6562 15.1016 80.7852 15.293 80.957 15.457C81.1367 15.6133 81.3594 15.7383 81.625 15.832C81.8984 15.9258 82.2227 15.9727 82.5977 15.9727ZM92.9102 5.32031H99.6719V15.6797H103.434V18H92.9102V15.6797H96.8477V7.65234H92.9102V5.32031ZM96.6133 2.03906C96.6133 1.60156 96.7539 1.24219 97.0352 0.960938C97.3164 0.671875 97.7109 0.527344 98.2188 0.527344C98.7344 0.527344 99.1328 0.671875 99.4141 0.960938C99.7031 1.24219 99.8477 1.60156 99.8477 2.03906C99.8477 2.47656 99.7031 2.83984 99.4141 3.12891C99.1328 3.41016 98.7344 3.55078 98.2188 3.55078C97.7109 3.55078 97.3164 3.41016 97.0352 3.12891C96.7539 2.83984 96.6133 2.47656 96.6133 2.03906ZM107.23 0H114.086V15.6797H117.953V18H107.23V15.6797H111.262V2.33203H107.23V0ZM126.156 12.9258L126.637 14.4492L130.199 5.32031H133.305L126.883 19.9219C126.742 20.2422 126.559 20.5859 126.332 20.9531C126.105 21.3281 125.824 21.6758 125.488 21.9961C125.16 22.3164 124.766 22.582 124.305 22.793C123.844 23.0117 123.305 23.1211 122.688 23.1211C122.43 23.1211 122.168 23.0977 121.902 23.0508C121.645 23.0117 121.414 22.9648 121.211 22.9102L121.609 20.7305C121.664 20.7305 121.738 20.7305 121.832 20.7305C121.926 20.7383 122.023 20.7461 122.125 20.7539C122.227 20.7617 122.32 20.7656 122.406 20.7656C122.5 20.7734 122.574 20.7773 122.629 20.7773C122.902 20.7773 123.145 20.6953 123.355 20.5312C123.574 20.375 123.766 20.1914 123.93 19.9805C124.094 19.7773 124.227 19.5742 124.328 19.3711C124.438 19.1758 124.516 19.043 124.562 18.9727L125.395 17.4023L120.004 5.32031H123.098L126.156 12.9258ZM157.891 0.9375H160.738L160.75 12.7852C160.734 13.582 160.578 14.3164 160.281 14.9883C159.992 15.6523 159.59 16.2266 159.074 16.7109C158.566 17.1875 157.969 17.5625 157.281 17.8359C156.594 18.1016 155.848 18.2344 155.043 18.2344C154.207 18.2344 153.449 18.1211 152.77 17.8945C152.09 17.6602 151.504 17.3242 151.012 16.8867C150.52 16.4414 150.129 15.8945 149.84 15.2461C149.551 14.5977 149.387 13.8555 149.348 13.0195H152.184C152.223 13.9414 152.48 14.6602 152.957 15.1758C153.441 15.6836 154.137 15.9375 155.043 15.9375C155.473 15.9375 155.863 15.8555 156.215 15.6914C156.566 15.5273 156.863 15.3008 157.105 15.0117C157.355 14.7227 157.547 14.3906 157.68 14.0156C157.812 13.6328 157.883 13.2227 157.891 12.7852V0.9375ZM163.855 11.543C163.855 10.6289 163.988 9.77734 164.254 8.98828C164.527 8.19922 164.914 7.51562 165.414 6.9375C165.922 6.35938 166.539 5.90625 167.266 5.57812C167.992 5.25 168.816 5.08594 169.738 5.08594C170.668 5.08594 171.496 5.25 172.223 5.57812C172.957 5.90625 173.574 6.35938 174.074 6.9375C174.582 7.51562 174.969 8.19922 175.234 8.98828C175.5 9.77734 175.633 10.6289 175.633 11.543V11.7891C175.633 12.7109 175.5 13.5664 175.234 14.3555C174.969 15.1445 174.582 15.8281 174.074 16.4062C173.574 16.9766 172.961 17.4258 172.234 17.7539C171.508 18.082 170.684 18.2461 169.762 18.2461C168.832 18.2461 168 18.082 167.266 17.7539C166.539 17.4258 165.922 16.9766 165.414 16.4062C164.914 15.8281 164.527 15.1445 164.254 14.3555C163.988 13.5664 163.855 12.7109 163.855 11.7891V11.543ZM166.656 11.7891C166.656 12.3672 166.715 12.9102 166.832 13.418C166.957 13.9258 167.145 14.375 167.395 14.7656C167.652 15.1484 167.977 15.4531 168.367 15.6797C168.758 15.8984 169.223 16.0078 169.762 16.0078C170.285 16.0078 170.738 15.8984 171.121 15.6797C171.512 15.4531 171.832 15.1484 172.082 14.7656C172.34 14.375 172.527 13.9258 172.645 13.418C172.77 12.9102 172.832 12.3672 172.832 11.7891V11.543C172.832 10.9805 172.77 10.4453 172.645 9.9375C172.527 9.42969 172.34 8.98438 172.082 8.60156C171.832 8.21875 171.512 7.91406 171.121 7.6875C170.738 7.46094 170.277 7.34766 169.738 7.34766C169.207 7.34766 168.746 7.46094 168.355 7.6875C167.965 7.91406 167.645 8.21875 167.395 8.60156C167.145 8.98438 166.957 9.42969 166.832 9.9375C166.715 10.4453 166.656 10.9805 166.656 11.543V11.7891ZM186.918 16.2656C186.488 16.8906 185.965 17.3789 185.348 17.7305C184.738 18.0742 184.055 18.2461 183.297 18.2461C182.641 18.2461 182.039 18.1445 181.492 17.9414C180.953 17.7383 180.488 17.418 180.098 16.9805C179.715 16.5352 179.414 15.9727 179.195 15.293C178.984 14.6055 178.879 13.7812 178.879 12.8203V5.32031H181.68V12.8438C181.68 13.4531 181.723 13.957 181.809 14.3555C181.902 14.7539 182.043 15.0703 182.23 15.3047C182.418 15.5391 182.652 15.707 182.934 15.8086C183.215 15.9023 183.551 15.9492 183.941 15.9492C184.691 15.9492 185.297 15.8047 185.758 15.5156C186.219 15.2188 186.566 14.8203 186.801 14.3203V5.32031H189.613V18H187.082L186.918 16.2656ZM201.906 5.08594C202.133 5.08594 202.359 5.09375 202.586 5.10938C202.812 5.125 203.027 5.14844 203.23 5.17969C203.441 5.21094 203.633 5.24609 203.805 5.28516C203.977 5.31641 204.121 5.35547 204.238 5.40234L203.84 8.15625C202.98 7.96094 202.133 7.86328 201.297 7.86328C200.359 7.86328 199.602 8.05859 199.023 8.44922C198.453 8.83984 198.031 9.38281 197.758 10.0781V18H194.957V5.32031H197.582L197.711 7.30078C198.227 6.61328 198.836 6.07422 199.539 5.68359C200.25 5.28516 201.039 5.08594 201.906 5.08594ZM210.145 5.32031L210.32 7.07812C210.781 6.44531 211.336 5.95703 211.984 5.61328C212.641 5.26172 213.367 5.08594 214.164 5.08594C214.812 5.08594 215.402 5.17969 215.934 5.36719C216.473 5.55469 216.934 5.84766 217.316 6.24609C217.707 6.64453 218.008 7.16016 218.219 7.79297C218.438 8.42578 218.547 9.1875 218.547 10.0781V18H215.746V10.125C215.746 9.60156 215.684 9.16406 215.559 8.8125C215.441 8.46094 215.27 8.17969 215.043 7.96875C214.824 7.75781 214.555 7.60938 214.234 7.52344C213.914 7.42969 213.551 7.38281 213.145 7.38281C212.527 7.38281 211.988 7.51953 211.527 7.79297C211.074 8.06641 210.707 8.4375 210.426 8.90625V18H207.613V5.32031H210.145ZM230.113 18C230.035 17.8438 229.969 17.6602 229.914 17.4492C229.867 17.2383 229.824 17.0117 229.785 16.7695C229.59 16.9727 229.367 17.1641 229.117 17.3438C228.875 17.5156 228.602 17.668 228.297 17.8008C228 17.9336 227.676 18.0391 227.324 18.1172C226.98 18.1953 226.609 18.2344 226.211 18.2344C225.539 18.2344 224.93 18.1406 224.383 17.9531C223.844 17.7578 223.379 17.4922 222.988 17.1562C222.605 16.8125 222.309 16.4102 222.098 15.9492C221.887 15.4883 221.781 14.9883 221.781 14.4492C221.781 13.0898 222.285 12.0508 223.293 11.332C224.309 10.6133 225.762 10.2539 227.652 10.2539H229.703V9.42188C229.703 8.75 229.477 8.21875 229.023 7.82812C228.57 7.42969 227.93 7.23047 227.102 7.23047C226.727 7.23047 226.398 7.27734 226.117 7.37109C225.836 7.45703 225.602 7.57812 225.414 7.73438C225.227 7.89062 225.086 8.07422 224.992 8.28516C224.898 8.49609 224.852 8.72266 224.852 8.96484H222.051C222.051 8.47266 222.164 7.99609 222.391 7.53516C222.625 7.06641 222.965 6.65234 223.41 6.29297C223.855 5.92578 224.398 5.63281 225.039 5.41406C225.688 5.19531 226.426 5.08594 227.254 5.08594C228.004 5.08594 228.699 5.17969 229.34 5.36719C229.98 5.54688 230.535 5.82031 231.004 6.1875C231.473 6.54688 231.84 7 232.105 7.54688C232.371 8.08594 232.504 8.71875 232.504 9.44531V15.0938C232.504 15.6484 232.543 16.1562 232.621 16.6172C232.707 17.0703 232.828 17.4648 232.984 17.8008V18H230.113ZM226.738 15.9727C227.098 15.9727 227.434 15.9297 227.746 15.8438C228.066 15.75 228.352 15.6328 228.602 15.4922C228.859 15.3438 229.078 15.1758 229.258 14.9883C229.445 14.8008 229.594 14.6094 229.703 14.4141V12.0352H227.922C226.781 12.0352 225.938 12.2188 225.391 12.5859C224.852 12.9531 224.582 13.4766 224.582 14.1562C224.582 14.4141 224.625 14.6562 224.711 14.8828C224.797 15.1016 224.926 15.293 225.098 15.457C225.277 15.6133 225.5 15.7383 225.766 15.832C226.039 15.9258 226.363 15.9727 226.738 15.9727ZM236.957 0H243.812V15.6797H247.68V18H236.957V15.6797H240.988V2.33203H236.957V0Z" fill="black" fill-opacity="0.65"/>
</g>
<defs>
<filter id="filter0_bd" x="0.585938" y="-4" width="251.094" height="35.1211" filterUnits="userSpaceOnUse" color-interpolation-filters="sRGB">
<feFlood flood-opacity="0" result="BackgroundImageFix"/>
<feGaussianBlur in="BackgroundImage" stdDeviation="2"/>
<feComposite in2="SourceAlpha" operator="in" result="effect1_backgroundBlur"/>
<feColorMatrix in="SourceAlpha" type="matrix" values="0 0 0 0 0 0 0 0 0 0 0 0 0 0 0 0 0 0 127 0"/>
<feOffset dy="4"/>
<feGaussianBlur stdDeviation="2"/>
<feColorMatrix type="matrix" values="0 0 0 0 0 0 0 0 0 0 0 0 0 0 0 0 0 0 0.25 0"/>
<feBlend mode="normal" in2="effect1_backgroundBlur" result="effect2_dropShadow"/>
<feBlend mode="normal" in="SourceGraphic" in2="effect2_dropShadow" result="shape"/>
</filter>
</defs>
</svg>
